<?xml version="1.0" encoding="utf-8"?>
<!-- Generator: Adobe Illustrator 23.0.2, SVG Export Plug-In . SVG Version: 6.00 Build 0)  -->
<svg version="1.1" id="Layer_1" xmlns="http://www.w3.org/2000/svg" xmlns:xlink="http://www.w3.org/1999/xlink" x="0px" y="0px"
	 viewBox="0 0 676.67 163.9" enable-background="new 0 0 676.67 163.9" xml:space="preserve">
<g>
	<path fill="#005A20" d="M339.68,26.59c-6.24,0.55-8.62,1.17-8.56,9.13l0.34,44.73c0.06,7.76,2.35,8.65,8.7,9l0.01,1.91l-27.78,0.21
		l-0.01-1.91c7.73-0.46,9.01-1.98,8.95-10.24l-0.34-45.24l-0.2,0l-24.76,57.52l-1.39,0.01L269.52,36.9l-0.2,0l0.3,40.2
		c0.08,10.38,2.18,12.58,9.42,12.83l0.01,1.91l-23.31,0.18l-0.01-1.91c7.54-0.56,9.61-2.09,9.52-12.97l-0.31-40.91
		c-0.06-7.86-2.15-8.65-9.49-9l-0.01-1.91l19.64-0.15l23.3,50.71l21.54-51.04l19.74-0.15L339.68,26.59z"/>
</g>
<g>
	<path fill="#005A20" d="M364.09,64.19c-14.94,5.15-15.99,10.8-15.96,14.23l0,0.2c0.04,4.74,2.94,7.84,6.61,7.81
		c2.18-0.02,5.25-1.35,6.14-1.86c3.07-1.53,3.35-2.75,3.33-5.77L364.09,64.19z M379.64,87.05c-4.13,4.97-7.2,5.09-8.79,5.1
		c-1.79,0.01-5.95-0.06-6.5-7.31c-3.65,3.35-8.87,7.42-14.33,7.46c-5.36,0.04-10.54-3.65-10.59-10.4
		c-0.08-10.08,8.53-13.56,24.65-20.14l-0.05-6.15c-0.05-7.25-4.73-8.33-7.7-8.31c-3.27,0.02-7.03,1.87-7.01,4.99
		c0.01,1.51,0.52,3.02,0.52,3.93c0.02,2.12-1.85,4.35-4.43,4.37c-3.07,0.02-4.29-2.79-4.3-4.4c-0.03-4.03,4.58-11.22,16.09-11.31
		c14.78-0.11,14.86,9.96,14.9,16.01l0.15,19.65c0.02,2.92,0.04,5.84,2.92,5.82c2.08-0.02,3.37-1.03,4.45-1.95L379.64,87.05z"/>
</g>
<g>
	<path fill="#005A20" d="M385.8,57.51c-0.04-5.94-1.93-6.03-3.52-6.02c-1.39,0.01-2.48,0.22-3.37,0.43l-0.01-1.61
		c4.85-1.65,9.79-3.5,14.64-5.55l0.5,0.2l0.07,8.97l0.2,0c4.61-7.19,7.97-9.23,11.73-9.26c3.37-0.03,5.37,2.08,5.4,5.4
		c0.02,2.52-1.36,4.44-3.74,4.46c-3.47,0.03-4.49-3.49-6.87-3.47c-2.38,0.02-6.71,5.09-6.68,8.31l0.17,22.67
		c0.05,6.95,3.43,7.33,8.49,7.49l0.01,1.51l-23.81,0.18L379,89.7c5.45-1.05,7.03-1.36,6.99-7.01L385.8,57.51z"/>
</g>
<g>
	<path fill="#005A20" d="M458.21,46.78c-1.29,0.21-3.27,0.43-4.73,4.57l-14.97,41.22c-4.96,13.54-9.27,20.22-16.71,20.28
		c-4.96,0.04-7.27-3.17-7.28-5.79c0-0.6,0.16-4.43,4.73-4.47c2.68-0.02,5.77,1.77,7.06,1.76c5.16-0.04,9.02-13.97,9.01-15.58
		c-0.01-1.51-4.84-10.75-6.26-13.86l-11.49-24.7c-1.21-2.51-3.79-2.99-5.08-3.19l-0.01-1.41l20.44-0.15l0.01,1.51
		c-2.28,0.12-5.75,0.25-5.73,2.97c0.01,1.31,0.72,2.92,1.02,3.62l11.6,25.4l7.57-22.42c0.97-2.73,2.24-5.96,2.23-6.87
		c-0.01-1.91-1.61-2.91-4.78-2.79l-0.01-1.51l13.39-0.1L458.21,46.78z"/>
</g>
<g>
	<path fill="#005A20" d="M522.71,44.78l0.01,1.51c-2.08,0.72-2.57,1.73-4.03,5.47l-13.43,34.96c-1.56,3.94-1.95,4.95-2.74,4.96
		c-0.79,0.01-1-0.7-2.41-4.31l-9.21-23.71l-10.93,24.27c-1.37,2.83-1.86,3.94-2.45,3.95c-0.69,0.01-1.2-1-2.61-4.41l-13.65-34.36
		c-2.02-4.82-2.82-6.13-5.31-6.31l-0.01-1.51l17.86-0.14l0.01,1.51c-2.28,0.22-4.56,0.64-4.54,3.46
		c0.03,3.53,5.98,16.28,10.64,29.14l8.88-20.12c-3.76-11.36-4.85-12.05-8.93-12.53l-0.01-1.51l20.14-0.15l0.01,1.51
		c-3.27,0.53-5.75,0.85-5.73,3.77c0.01,1.81,0.62,2.92,2.14,6.84l8.1,21.5l8.76-22.43c1.07-2.53,1.65-5.25,1.64-6.46
		c-0.02-2.42-2.01-2.81-4.39-3.29l-0.01-1.51L522.71,44.78z"/>
</g>
<g>
	<path fill="#005A20" d="M553.05,69.84c-0.09-12.49-5.24-23.44-14.36-23.37c-6.25,0.05-11.67,5.33-11.59,15.8
		c0.06,7.46,2.48,25.98,14.38,25.89C546.55,88.13,553.16,84.25,553.05,69.84 M561.96,66.85c0.08,9.97-6.76,24.03-21.84,24.15
		c-12.8,0.1-21.8-10.21-21.91-23.81c-0.09-12.39,7.96-23.44,21.25-23.54C552.46,43.55,561.85,52.24,561.96,66.85"/>
</g>
<g>
	<path fill="#005A20" d="M641.65,55.77c-0.75-6.85-5.63-10.03-10.29-10c-5.56,0.04-12.26,5.03-12.16,18.73
		c0.11,15.01,7.3,20.6,13.85,20.55c4.17-0.03,8.02-2.48,8.78-6.11L641.65,55.77z M656.85,84.88c-4.75,1.75-9.3,3.4-14.54,5.35
		l-0.4-0.3l-0.05-6.15l-0.2,0c-1.76,2.73-5.41,6.49-12.75,6.55c-3.87,0.03-18.07-1.88-18.23-22.43c-0.1-13.2,9.24-24.86,20.35-24.94
		c4.27-0.03,7.25,1.35,10.55,4.25l-0.12-15.72c-0.02-3.02-0.04-5.14-4.4-5.11c-0.6,0-1.59,0.01-2.38,0.12l-0.01-1.61
		c4.95-1.35,9.8-2.79,14.55-4.54l0.5,0.2l0.43,57.13c0.03,4.13,0.05,6.15,6.69,5.59L656.85,84.88z"/>
</g>
<g>
	<path fill="#005A20" d="M599.3,69.49c-0.09-12.49-5.24-23.44-14.36-23.37c-6.25,0.05-11.67,5.33-11.59,15.8
		c0.06,7.46,2.48,25.98,14.38,25.89C592.8,87.78,599.41,83.9,599.3,69.49 M608.21,66.5c0.08,9.97-6.76,24.03-21.84,24.15
		c-12.8,0.1-21.8-10.21-21.91-23.81c-0.09-12.39,7.96-23.44,21.25-23.54C598.71,43.2,608.1,51.89,608.21,66.5"/>
</g>
<g>
	<path fill="#005A20" d="M228.59,162.39L148.51,163l-0.19-24.62l9.92-0.86c4.55-0.4,7.08-0.97,8.36-1.36
		c0.28-1.39,0.65-4.18,0.61-9.22l-0.33-43.61l-35.37,79.8l-16.7,0.13l-35.58-75.4L79.48,122c0.07,9.55,1.4,13.31,1.98,14.5
		c0.85,0.34,3.17,1.07,8.16,1.57l9.65,0.96l0.18,24.35l-70.71,0.53l-0.18-24.4l9.69-1.05c5.8-0.63,8.37-1.64,9.29-2.1
		c0.41-1.25,1.3-5.03,1.23-14.11l-0.64-84.65c-0.03-3.65-0.37-5.71-0.64-6.76c-1.3-0.38-3.98-0.91-9.04-1.12l-10.3-0.42l0.62-24.43
		l58.15-0.95l41.75,88.48L168.17,3.3l59.21-0.45l0.19,24.71l-10.02,0.78c-4.23,0.33-6.54,0.87-7.69,1.24
		c-0.24,1.06-0.54,3.13-0.51,6.79l0.7,92.69c0.03,3.6,0.33,5.68,0.57,6.77c1.2,0.36,3.6,0.9,7.92,1.25l9.85,0.78L228.59,162.39z
		 M150.24,161.24l76.59-0.58l-0.16-21.2l-8.26-0.66c-4.88-0.39-7.48-1.02-8.8-1.48l-0.43-0.15l-0.12-0.44
		c-0.32-1.19-0.71-3.49-0.74-7.66l-0.7-92.69c-0.03-4.23,0.36-6.53,0.69-7.71l0.12-0.43l0.41-0.15c1.04-0.39,3.54-1.1,8.58-1.49
		l8.4-0.66l-0.16-21.34l-56.34,0.43l-40.58,91.54l-42.9-90.9l-55.35,0.9l-0.53,21.04l8.58,0.35c5.92,0.24,8.78,0.94,9.96,1.34
		l0.42,0.14l0.13,0.42c0.36,1.17,0.8,3.45,0.84,7.7l0.64,84.65c0.08,9.98-0.99,13.84-1.46,15.04l-0.11,0.28l-0.26,0.15
		c-0.86,0.5-3.57,1.75-10.25,2.48l-8.12,0.88l0.16,21.08l67.22-0.51l-0.16-21.04l-8.09-0.8c-5.76-0.57-8.2-1.47-8.98-1.83
		l-0.26-0.12l-0.14-0.24c-0.68-1.19-2.26-5.1-2.34-15.59l-0.32-42.07l38.49,81.55l14.46-0.11l38.19-86.16l0.39,51.69
		c0.04,5.58-0.39,8.58-0.76,10.11l-0.11,0.46l-0.45,0.16c-1.4,0.49-4.14,1.16-9.23,1.6l-8.32,0.72L150.24,161.24z"/>
	<path fill="#005A20" d="M206.02,27.3c0.11-0.09,2.03-1.58,10.28-2.23l6.52-0.51l-0.13-17.39l-52.58,0.4l-41.33,93.6L85.07,8.21
		L32.75,8.6l0.13,17.54l6.68,0.27c9.37,0.38,11.55,1.92,11.58,1.92l0,0c0.01,0.02,1.44,1.85,1.5,9.57l0.64,84.06
		c0.1,13.52-1.87,16.36-1.96,16.47c-0.07,0.09-1.89,2.25-11.71,3.33l-6.3,0.69l0.13,17.2l62.64-0.47l-0.13-17.16l-6.27-0.63
		c-8.32-0.83-10.17-2.34-10.2-2.37c-0.5-0.51-3.03-3.77-3.13-17.23l-0.38-50.57l41.28,87.79l11.85-0.09l40.88-92.6l0.46,60.31
		c0.06,8.37-0.94,11.24-1.25,11.94c-0.63,0.37-3.22,1.6-10.95,2.28l-6.45,0.57l0.13,17.34l71.91-0.54l-0.13-17.29l-6.41-0.51
		c-7.67-0.61-10.03-1.86-10.47-2.13c-0.26-0.47-1.25-2.69-1.3-9.48l-0.7-92.04C204.76,29.26,206.04,27.3,206.02,27.3z"/>
</g>
<path fill="#005A20" d="M292.51,126.07c0-2.6,0-3.37-2.76-3.37v-0.56h8.28v0.56c-2.76,0-2.76,0.77-2.76,3.37v8.16
	c0,1.21,0.12,3.46,0.47,4.54c0.68,2.04,2.61,2.97,4.55,2.97c1.91,0,4.02-0.77,5.14-2.5c0.94-1.48,0.94-3.89,0.94-5.56v-7.6
	c0-2.6,0-3.37-2.76-3.37v-0.56h6.78v0.56c-2.76,0-2.76,0.77-2.76,3.37v9.11c0,3.71-1.38,7.88-7.48,7.88c-6.22,0-7.63-3.74-7.63-7.79
	V126.07z"/>
<path fill="#005A20" d="M333.33,138.68c0,2.6,0,3.37,2.76,3.37v0.56h-6.78v-0.56c2.76,0,2.76-0.77,2.76-3.37v-13.84
	c-1.06-1.39-1.88-2.13-3.84-2.13v-0.56h5.28l11.83,15.29h0.06v-11.37c0-2.6,0-3.37-2.76-3.37v-0.56h6.78v0.56
	c-2.76,0-2.76,0.77-2.76,3.37v16.87h-0.53l-12.74-16.44h-0.06V138.68z"/>
<path fill="#005A20" d="M373.93,138.68c0,2.6,0,3.37,2.76,3.37v0.56h-8.28v-0.56c2.76,0,2.76-0.77,2.76-3.37v-12.61
	c0-2.6,0-3.37-2.76-3.37v-0.56h8.28v0.56c-2.76,0-2.76,0.77-2.76,3.37V138.68z"/>
<path fill="#005A20" d="M411.49,126.9c0.23-0.59,0.79-2.07,0.79-2.66c0-1.11-1.2-1.45-2.05-1.55v-0.56h5.99v0.56
	c-1.79,0.19-2.44,1.73-3.05,3.31l-6.63,17.06H406l-7.13-17.27c-0.76-1.88-1.06-2.94-3.23-3.09v-0.56h7.95v0.56
	c-0.91,0.12-2.17,0.15-2.17,1.45c0,0.8,0.53,1.92,0.82,2.63l4.78,11.65L411.49,126.9z"/>
<path fill="#005A20" d="M440.52,131.35h3.9c2.32,0,3.23-0.25,3.4-3h0.53v7.14h-0.53c-0.24-2.72-1.03-3.03-3.4-3.03h-3.9v7.48
	c0,1.27,0.35,1.55,1.59,1.55h3.99c2.58,0,3.52-1.27,5.05-4.02h0.56l-1.64,5.13H435v-0.56c2.76,0,2.76-0.77,2.76-3.37v-12.61
	c0-2.6,0-3.37-2.76-3.37v-0.56h14.91l0.26,4.48h-0.59c-0.56-3.12-1.35-3.37-4.11-3.37h-4.96V131.35z"/>
<path fill="#005A20" d="M484.95,142.6l-6.6-9.55h-2v5.62c0,2.6,0,3.37,2.76,3.37v0.56h-8.28v-0.56c2.76,0,2.76-0.77,2.76-3.37
	v-12.61c0-2.6,0-3.37-2.76-3.37v-0.56h8.42c5.72,0,6.75,3.52,6.75,5.31c0,2.97-2.26,4.63-4.81,5.19l3.79,5.56
	c1.44,2.1,2.49,3.62,5.17,3.83v0.56H484.95z M476.35,132.06H477c2.79,0,5.72-1.05,5.72-4.48c0-2.47-1.59-4.33-3.96-4.33
	c-0.82,0-1.61,0.15-2.41,0.28V132.06z"/>
<path fill="#005A20" d="M521.26,128.76h-0.53c-0.2-3.24-2.2-5.87-5.43-5.87c-1.67,0-3.38,1.33-3.38,3.18
	c0,4.29,10.62,5.04,10.62,11.09c0,3.21-2.41,5.9-6.13,5.9c-1.35,0-2.32-0.28-3.08-0.59c-0.79-0.28-1.38-0.56-2.08-0.56
	c-0.67,0-0.82,0.52-0.88,1.14h-0.53v-7.01h0.53c0.44,4.94,4.02,5.81,5.75,5.81c1.97,0,3.87-1.08,3.87-3.34
	c0-4.7-10.33-5.25-10.33-11.37c0-3.15,2.7-5.47,5.75-5.47c1.06,0,1.94,0.28,2.64,0.59c0.73,0.28,1.29,0.59,1.67,0.59
	c0.7,0,0.88-0.56,1-1.17h0.53V128.76z"/>
<path fill="#005A20" d="M548.23,138.68c0,2.6,0,3.37,2.76,3.37v0.56h-8.28v-0.56c2.76,0,2.76-0.77,2.76-3.37v-12.61
	c0-2.6,0-3.37-2.76-3.37v-0.56h8.28v0.56c-2.76,0-2.76,0.77-2.76,3.37V138.68z"/>
<path fill="#005A20" d="M579.98,138.68c0,2.6,0,3.37,2.76,3.37v0.56h-8.28v-0.56c2.76,0,2.76-0.77,2.76-3.37v-15.2h-2.91
	c-2.44,0-3.17,1.54-3.32,3.46h-0.53l0.21-4.79h15.85l0.2,4.79h-0.53c-0.15-1.92-0.88-3.46-3.32-3.46h-2.91V138.68z"/>
<path fill="#005A20" d="M620.49,126.6c0.35-0.59,1.06-1.7,1.06-2.41c0-1.14-0.88-1.48-1.97-1.48v-0.56h6.78v0.56
	c-1.88,0-2.96,1.36-3.96,3.03l-4.93,8.19v4.76c0,2.6,0,3.37,2.76,3.37v0.56h-8.28v-0.56c2.76,0,2.76-0.77,2.76-3.37v-4.48
	l-6.02-9.64c-0.7-1.14-1.82-1.85-2.82-1.85v-0.56h8.31v0.56c-1.15,0-2.26,0.22-2.26,1.36c0,0.49,0.41,1.11,0.65,1.51l4.31,7.01
	L620.49,126.6z"/>
<g>
</g>
<g>
</g>
<g>
</g>
<g>
</g>
<g>
</g>
<g>
</g>
</svg>
