<svg id="Layer_2" data-name="Layer 2" xmlns="http://www.w3.org/2000/svg" viewBox="0 0 200 186"><defs><style>.cls-1{fill:#006332;}</style></defs><path class="cls-1" d="M124.41,109c-1.28-.19-2.18-.45-2.17-2.08,0-11.5,0-23,0-34.51,0-1.12.35-1.61,1.56-1.88,1.59-.35,3.84.46,4.66-1,.72-1.3.22-3.28.25-5,0-.22,0-.44,0-.66.23-1.59-.53-2-2-2-5.48.06-11,.1-16.43,0a2.54,2.54,0,0,0-2.78,1.79Q102.46,75.11,97.28,86.5a44.05,44.05,0,0,1-3.21,6.61c-.38-.68-.69-1.16-.92-1.67C89,82.4,84.8,73.38,80.73,64.31c-.79-1.76-1.67-2.54-3.73-2.45-4.37.2-8.76.07-13.14.07-4.62,0-4.62,0-4.61,4.59,0,3.42,0,3.41,3.29,3.76.73.07,1.45.28,2.17.29,1.28,0,1.57.72,1.57,1.84,0,11.21-.06,22.42,0,33.63,0,1.85-.86,2.6-2.53,2.91-1.48.26-3.58-.33-4.28.88s-.23,3.13-.26,4.73a8.58,8.58,0,0,1,0,.88c-.23,1.57.47,2,2,2,5.33-.08,10.67,0,16,0,6.53,0,6.53,0,6.12-6.68.22-.94-.16-1.33-1.12-1.38s-2.17-.23-3.25-.38-2.13-.76-2.14-2.08c0-5.23,0-10.45,0-15.68.45-.07.49.14.58.34q5.09,11.06,10.18,22.11c2.16,4.69.9,3.58,5.64,3.78a2.05,2.05,0,0,0,2.29-1.45q4.18-9.54,8.56-19c1.16-2.5,2-5.16,3.74-7.72V108h0a2.68,2.68,0,0,1-1.68.93c-1.6.28-3.83-.4-4.62,1s-.18,3.28-.2,5a3.23,3.23,0,0,1,0,.44c-.3,1.68.46,2.07,2.06,2.06,7.38-.09,14.76,0,22.13-.06,3.66,0,3.3.58,3.31-3.21C128.73,109.66,128.72,109.63,124.41,109ZM75.69,86v-.19c0,.07.06.12.09.18Z"/><path class="cls-1" d="M162.34,145.08l-15.76-16.59a65.53,65.53,0,1,0-16.73,15.79l15.81,16.64a11.5,11.5,0,1,0,16.68-15.84ZM47.45,89.5A46.5,46.5,0,1,1,94,136,46.5,46.5,0,0,1,47.45,89.5Z"/></svg>